<svg xmlns="http://www.w3.org/2000/svg" xmlns:xlink="http://www.w3.org/1999/xlink" width="243.85" height="243.84" viewBox="0 0 243.85 243.84"><defs><linearGradient id="a" x1="367" y1="447.46" x2="385.35" y2="429.11" gradientUnits="userSpaceOnUse"><stop offset="0" stop-color="#648c00"/><stop offset="1" stop-color="#73aa19"/></linearGradient></defs><title>Oggetto vettoriale avanzato1</title><path d="M549.47,390.88a7.36,7.36,0,0,0-10.41,0L441.73,488.2A12.84,12.84,0,0,1,423.58,470l97.32-97.32a7.36,7.36,0,0,0,0-10.41L423.58,265a7.36,7.36,0,0,0-10.41,0l-97.32,97.32a27.56,27.56,0,0,0,0,39l97.32,97.32,0,0a27.59,27.59,0,0,0,39,0l97.32-97.32A7.36,7.36,0,0,0,549.47,390.88ZM401.26,352.4v3.85h-18V352.4c0-24.8,9.26-29.36,36.49-29.36,21.09,0,33.63,4,33.63,30.07,0,15.68-1,21.24-17.12,27.94-7.55,3.13-10,4-10,13.11v2.43h-18v-2.43c0-15.25.44-18.38,13.84-24.23,9.83-4.28,13.27-4.7,13.27-16.82,0-13.68-3.42-15.11-16.39-15.11C404.39,338,400.83,339.86,401.26,352.4Zm7.1,78.25V411.12h18v19.52Z" transform="translate(-307.77 -262.83)" style="fill:url(#a)"/></svg>